<svg xmlns="http://www.w3.org/2000/svg" version="1.1" xmlns:xlink="http://www.w3.org/1999/xlink" xmlns:svgjs="http://svgjs.dev/svgjs" width="1500" height="1500" viewBox="0 0 1500 1500"><rect width="1500" height="1500" fill="#ffffff"></rect><g transform="matrix(0.6666666666666666,0,0,0.6666666666666666,249.39393939393938,580.951858363323)"><svg viewBox="0 0 396 134" data-background-color="#046380" preserveAspectRatio="xMidYMid meet" height="507" width="1500" xmlns="http://www.w3.org/2000/svg" xmlns:xlink="http://www.w3.org/1999/xlink"><g id="tight-bounds" transform="matrix(1,0,0,1,0.2400000000000091,0.019085737617473342)"><svg viewBox="0 0 395.52 133.96171172178362" height="133.96171172178362" width="395.52"><g><svg viewBox="0 0 395.52 133.96171172178362" height="133.96171172178362" width="395.52"><g><svg viewBox="0 0 395.52 133.96171172178362" height="133.96171172178362" width="395.52"><g id="textblocktransform"><svg viewBox="0 0 395.52 133.96171172178362" height="133.96171172178362" width="395.52" id="textblock"><g><svg viewBox="0 0 395.52 62.96620765027322" height="62.96620765027322" width="395.52"><g transform="matrix(1,0,0,1,0,0)"><svg width="395.52" viewBox="2.66 -31.76 201.03 32" height="62.96620765027322" data-palette-color="#ffffff"><path d="M2.66-1.68L3.66-4.08Q4.88-3.39 6.82-2.87 8.76-2.34 10.55-2.34L10.55-2.34Q12.79-2.34 14.17-3.31 15.55-4.27 15.55-6.47L15.55-6.47Q15.55-8.18 14.77-9.02 13.99-9.86 12.35-10.38L12.35-10.38 8.69-11.52Q7.23-11.99 6.29-12.44 5.35-12.89 4.54-13.61 3.74-14.33 3.37-15.39 3-16.46 3-17.94L3-17.94Q3-21.22 5.25-22.81 7.5-24.41 10.91-24.41 14.33-24.41 17.41-23L17.41-23 16.48-20.65Q13.96-21.85 11.13-21.85L11.13-21.85Q8.86-21.85 7.42-20.89 5.98-19.92 5.98-17.82L5.98-17.82Q5.98-16.26 6.77-15.63 7.57-14.99 9.62-14.33L9.62-14.33 13.21-13.18Q15.19-12.55 16.3-11.8 17.41-11.06 18.01-9.8 18.6-8.54 18.6-6.62L18.6-6.62Q18.6-4.79 17.97-3.42 17.33-2.05 16.2-1.27 15.06-0.49 13.7-0.12 12.33 0.24 10.69 0.24L10.69 0.24Q6.64 0.24 2.66-1.68L2.66-1.68ZM46.82-24.41L46.82-24.41Q50.27-24.41 52.12-22.4 53.98-20.39 53.98-16.38L53.98-16.38 53.98 0 50.85 0 50.85-16.41Q50.85-21.85 46.92-21.85L46.92-21.85Q42.92-21.85 40.4-20.26L40.4-20.26Q40.45-19.97 40.57-18.6 40.7-17.24 40.7-16.21L40.7-16.21 40.7 0 37.57 0 37.57-16.31Q37.57-19.26 36.72-20.56 35.86-21.85 33.71-21.88L33.71-21.88 33.66-21.88Q32.35-21.88 30.52-21.45 28.68-21.02 27-20.09L27-20.09 27 0 23.87 0 23.87-24.05 26.76-24.05 26.88-22.51Q30.32-24.41 34.13-24.41L34.13-24.41Q37.91-24.41 39.26-22.41L39.26-22.41Q42.97-24.41 46.82-24.41ZM62.69-6.79L62.69-6.79Q62.69-2.25 67.96-2.25L67.96-2.25Q69.53-2.25 71.15-2.71 72.77-3.17 73.82-3.86L73.82-3.86 73.82-11.55 72.46-11.55Q71.28-11.55 70.31-11.49 69.33-11.43 68.13-11.28 66.94-11.13 66.04-10.79 65.13-10.45 64.34-9.95 63.54-9.45 63.12-8.64 62.69-7.84 62.69-6.79ZM61.76-20.58L61.15-23Q65.47-24.41 68.67-24.41L68.67-24.41Q70.48-24.41 71.92-23.91 73.36-23.41 74.49-22.35 75.63-21.29 76.25-19.45 76.87-17.6 76.87-15.06L76.87-15.06 76.87 0 74.63 0 74.14-1.61Q73.26-0.9 71.31-0.33 69.36 0.24 67.48 0.24L67.48 0.24Q63.96 0.24 61.86-1.59 59.76-3.42 59.76-6.93L59.76-6.93Q59.76-8.06 60.11-9.02 60.47-9.99 61.34-10.89 62.2-11.79 63.53-12.44 64.86-13.09 66.94-13.46 69.01-13.84 71.67-13.84L71.67-13.84 73.82-13.84 73.82-14.62Q73.8-18.63 72.42-20.24 71.04-21.85 68.53-21.85L68.53-21.85Q68.16-21.85 67.73-21.81 67.3-21.78 66.99-21.74 66.67-21.7 66.12-21.59 65.57-21.48 65.31-21.45 65.06-21.41 64.4-21.25 63.74-21.09 63.57-21.04 63.4-21 62.63-20.8 61.86-20.61 61.76-20.58L61.76-20.58ZM86.91-24.05L87.03-21.95Q88.47-22.92 90.68-23.63 92.89-24.34 94.74-24.41L94.74-24.41 94.74-21.8Q92.62-21.8 90.43-21.15 88.25-20.51 87.05-19.63L87.05-19.63 87.05 0 83.93 0 83.93-24.05 86.91-24.05ZM107.78 0.24L107.78 0.24Q105.82 0.2 104.57-0.39 103.31-0.98 102.6-2.23 101.89-3.49 101.63-5.19 101.36-6.88 101.36-9.47L101.36-9.47 101.36-21.85 97.62-21.85 97.62-24.05 101.45-24.05 102.07-30.93 104.48-30.93 104.48-24.05 112-24.05 112-21.85 104.48-21.85 104.48-9.42Q104.48-7.08 104.74-5.62 104.99-4.15 105.59-3.45 106.19-2.76 106.85-2.55 107.51-2.34 108.61-2.34L108.61-2.34Q111.12-2.34 112.27-2.51L112.27-2.51 112.39 0Q110.44 0.24 107.78 0.24ZM137.66-28.91L137.66-15.63 139.71-15.63Q142.27-15.63 143.56-15.7 144.86-15.77 146.38-16.09 147.91-16.41 148.57-17.09 149.23-17.77 149.69-18.98 150.16-20.19 150.16-22.05L150.16-22.05Q150.16-25.98 148.52-27.44 146.88-28.91 143.25-28.91L143.25-28.91 137.66-28.91ZM134.53-31.35L143.05-31.35Q145.54-31.35 147.34-30.91 149.13-30.47 150.51-29.43 151.89-28.39 152.59-26.56 153.28-24.73 153.28-22.09L153.28-22.09Q153.28-19.87 152.72-18.27 152.16-16.67 151.14-15.67 150.13-14.67 148.46-14.1 146.79-13.53 144.87-13.31 142.95-13.09 140.27-13.09L140.27-13.09 137.66-13.09 137.66 0 134.53 0 134.53-31.35ZM164.2-31.07Q166.1-31.76 168.61-31.76 171.13-31.76 173.02-31.07 174.91-30.37 176.15-29.1 177.4-27.83 178.16-25.82 178.91-23.8 179.23-21.4 179.55-18.99 179.55-15.82L179.55-15.82Q179.55-12.62 179.25-10.23 178.96-7.84 178.23-5.8 177.5-3.76 176.26-2.48 175.03-1.2 173.13-0.48 171.22 0.24 168.61 0.24 166 0.24 164.09-0.48 162.19-1.2 160.96-2.48 159.72-3.76 158.99-5.8 158.26-7.84 157.97-10.23 157.67-12.62 157.67-15.82L157.67-15.82Q157.67-18.99 157.99-21.4 158.31-23.8 159.06-25.82 159.82-27.83 161.07-29.1 162.31-30.37 164.2-31.07ZM162.48-5.43Q164.17-2.34 168.61-2.34 173.05-2.34 174.74-5.43 176.42-8.52 176.42-15.75L176.42-15.75Q176.42-23 174.73-26.09 173.03-29.17 168.61-29.17 164.19-29.17 162.49-26.09 160.8-23 160.8-15.75L160.8-15.75Q160.8-8.52 162.48-5.43ZM202.93-30.25L202.37-27.76Q198.61-29.17 194.93-29.17L194.93-29.17Q188.07-29.17 188.07-23.73L188.07-23.73Q188.07-21.73 188.97-20.64 189.87-19.56 192.56-18.58L192.56-18.58 195.34-17.58Q195.61-17.48 196.15-17.29L196.15-17.29Q197.22-16.92 197.77-16.71 198.32-16.5 199.26-16.05 200.2-15.6 200.71-15.21 201.23-14.82 201.88-14.15 202.54-13.48 202.87-12.73 203.2-11.99 203.45-10.93 203.69-9.86 203.69-8.62L203.69-8.62Q203.69-4.37 201.1-2.06 198.52 0.24 194.12 0.24L194.12 0.24Q188.48 0.24 184.94-1.66L184.94-1.66 185.62-4.22Q186.94-3.66 187.79-3.34 188.63-3.03 190.35-2.69 192.07-2.34 193.88-2.34L193.88-2.34Q197-2.34 198.78-3.92 200.57-5.49 200.57-8.67L200.57-8.67Q200.57-9.79 200.3-10.64 200.03-11.5 199.61-12.06 199.2-12.62 198.34-13.12 197.49-13.62 196.71-13.94 195.93-14.26 194.56-14.72L194.56-14.72 191.56-15.72Q188.29-16.82 186.61-18.65 184.94-20.48 184.94-23.66L184.94-23.66Q184.94-25.83 185.69-27.43 186.43-29.03 187.77-29.96 189.12-30.88 190.79-31.32 192.46-31.76 194.51-31.76L194.51-31.76Q199.27-31.76 202.93-30.25L202.93-30.25Z" opacity="1" transform="matrix(1,0,0,1,0,0)" fill="#000000" class="wordmark-text-0" data-fill-palette-color="primary" id="text-0"></path></svg></g></svg></g><g transform="matrix(1,0,0,1,0,92.69582852476502)"><svg viewBox="0 0 395.52 41.26588319701858" height="41.26588319701858" width="395.52"><path d="M395.52 0l-6.878 20.633 6.878 20.633h-395.52l6.878-20.633-6.878-20.633z" data-fill-palette-color="tertiary" opacity="1" fill="#000000"></path><g transform="matrix(1,0,0,1,75.54432000000001,14.8648104372459)"><svg width="244.43135999999996" viewBox="3.78 -33.8 898.27 42.4" height="11.536262322526785" data-palette-color="#046380"><path d="M7.88 0L3.78 0 3.78-31.95 7.88-31.95 7.88 0ZM23.7 0L5 0 5-3.48 23.7-3.48 23.7 0ZM23.18-14.58L6.13-14.58 6.13-18.03 23.18-18.03 23.18-14.58ZM23.55-28.48L4.98-28.48 4.98-31.95 23.55-31.95 23.55-28.48ZM63.97 0L59.92 0 59.92-15.28Q59.92-17.2 59.44-18.61 58.95-20.03 57.84-20.8 56.72-21.58 54.85-21.58L54.85-21.58Q53.07-21.58 51.77-20.85 50.47-20.13 49.67-18.91 48.87-17.7 48.55-16.15L48.55-16.15 47.92-19.03 48.42-19.03Q48.82-20.6 49.77-21.95 50.72-23.3 52.35-24.13 53.97-24.95 56.37-24.95L56.37-24.95Q59.1-24.95 60.76-23.88 62.42-22.8 63.2-20.74 63.97-18.68 63.97-15.73L63.97-15.73 63.97 0ZM33.5 0L29.45 0 29.45-24.4 33.5-24.4 33.32-18.55 33.5-18.3 33.5 0ZM48.72 0L44.7 0 44.7-15.28Q44.7-17.2 44.21-18.61 43.72-20.03 42.62-20.8 41.52-21.58 39.65-21.58L39.65-21.58Q37.85-21.58 36.55-20.85 35.25-20.13 34.45-18.89 33.65-17.65 33.32-16.07L33.32-16.07 32.57-18.95 33.47-18.95Q33.85-20.6 34.77-21.96 35.7-23.33 37.29-24.14 38.87-24.95 41.15-24.95L41.15-24.95Q44.52-24.95 46.29-23.2 48.05-21.45 48.5-18.1L48.5-18.1Q48.62-17.6 48.67-17.01 48.72-16.43 48.72-15.85L48.72-15.85 48.72 0ZM82.27 0.53L82.27 0.53Q80.02 0.53 78.37-0.23 76.72-0.98 75.7-2.38 74.67-3.78 74.32-5.63L74.32-5.63 73-5.63 74.17-9.43Q74.27-7.23 75.16-5.76 76.05-4.3 77.57-3.58 79.1-2.85 81.02-2.85L81.02-2.85Q84.1-2.85 85.73-4.65 87.37-6.45 87.37-9.93L87.37-9.93 87.37-14.6Q87.37-18.05 85.75-19.85 84.12-21.65 81.02-21.65L81.02-21.65Q79.17-21.65 77.75-20.93 76.32-20.2 75.38-18.95 74.45-17.7 74.1-16.1L74.1-16.1 73.1-18.93 74.27-18.93Q74.67-20.6 75.63-21.96 76.6-23.33 78.28-24.14 79.97-24.95 82.45-24.95L82.45-24.95Q86.85-24.95 89.15-22.21 91.45-19.48 91.45-14.28L91.45-14.28 91.45-10.23Q91.45-4.98 89.13-2.23 86.82 0.53 82.27 0.53ZM74.27 8.6L70.25 8.6 70.25-24.4 74.3-24.4 74.12-18.53 74.17-17.28 74.17-7 74.15-6.18 74.27 0.68 74.27 8.6ZM106.79 0.63L106.79 0.63Q101.54 0.63 98.83-2.21 96.12-5.05 96.12-10.38L96.12-10.38 96.12-14.1Q96.12-19.4 98.84-22.23 101.57-25.05 106.79-25.05L106.79-25.05Q112.04-25.05 114.76-22.23 117.47-19.4 117.47-14.1L117.47-14.1 117.47-10.38Q117.47-5.05 114.76-2.21 112.04 0.63 106.79 0.63ZM106.79-2.68L106.79-2.68Q110.04-2.68 111.73-4.6 113.42-6.53 113.42-10.15L113.42-10.15 113.42-14.33Q113.42-17.93 111.73-19.84 110.04-21.75 106.79-21.75L106.79-21.75Q103.57-21.75 101.87-19.84 100.17-17.93 100.17-14.33L100.17-14.33 100.17-10.15Q100.17-6.53 101.87-4.6 103.57-2.68 106.79-2.68ZM133.42 0L127.19 0 121.19-24.4 125.37-24.4 130.17-2.95 130.64-2.95 135.64-23.75 141.37-23.75 146.37-2.95 146.82-2.95 151.67-24.4 155.82-24.4 149.82 0 143.62 0 139.49-17.35 138.69-20.83 138.32-20.83 137.54-17.35 133.42 0ZM170.76 0.55L170.76 0.55Q165.19 0.55 162.36-2.18 159.54-4.9 159.54-9.98L159.54-9.98 159.54-14.33Q159.54-19.48 162.16-22.26 164.79-25.05 169.84-25.05L169.84-25.05Q173.24-25.05 175.51-23.79 177.79-22.53 178.94-20.2 180.09-17.88 180.09-14.65L180.09-14.65 180.09-13.75Q180.09-12.95 180.03-12.15 179.96-11.35 179.86-10.58L179.86-10.58 176.14-10.58Q176.19-11.78 176.2-12.85 176.21-13.93 176.21-14.83L176.21-14.83Q176.21-17.05 175.5-18.59 174.79-20.13 173.38-20.94 171.96-21.75 169.84-21.75L169.84-21.75Q166.69-21.75 165.11-19.93 163.54-18.1 163.54-14.7L163.54-14.7 163.54-12.38 163.56-11.88 163.56-9.55Q163.56-8.03 164.01-6.8 164.46-5.58 165.43-4.69 166.39-3.8 167.88-3.34 169.36-2.88 171.41-2.88L171.41-2.88Q173.79-2.88 175.84-3.5 177.89-4.13 179.69-5.2L179.69-5.2 179.31-1.7Q177.69-0.68 175.54-0.06 173.39 0.55 170.76 0.55ZM179.01-10.58L161.66-10.58 161.66-13.63 179.01-13.63 179.01-10.58ZM189.34-14.93L189.34-14.93 188.41-18.05 189.41-18.1Q190.21-21.2 192.16-22.99 194.11-24.78 197.34-24.78L197.34-24.78Q198.14-24.78 198.77-24.65 199.41-24.53 199.91-24.35L199.91-24.35 200.16-20.43Q199.54-20.63 198.77-20.75 198.01-20.88 197.09-20.88L197.09-20.88Q194.34-20.88 192.3-19.35 190.26-17.82 189.34-14.93ZM189.54 0L185.49 0 185.49-24.4 189.44-24.4 189.24-17.2 189.54-16.9 189.54 0ZM226.86-9.6L223.28-9.6 212.31-31.95 216.68-31.95 222.56-19.73 224.91-14.43 225.23-14.43 227.58-19.73 233.43-31.95 237.83-31.95 226.86-9.6ZM227.11 0L223.03 0 223.03-13.48 227.11-13.48 227.11 0ZM251.75 0.63L251.75 0.63Q246.5 0.63 243.79-2.21 241.08-5.05 241.08-10.38L241.08-10.38 241.08-14.1Q241.08-19.4 243.8-22.23 246.53-25.05 251.75-25.05L251.75-25.05Q257-25.05 259.72-22.23 262.43-19.4 262.43-14.1L262.43-14.1 262.43-10.38Q262.43-5.05 259.72-2.21 257 0.63 251.75 0.63ZM251.75-2.68L251.75-2.68Q255-2.68 256.69-4.6 258.38-6.53 258.38-10.15L258.38-10.15 258.38-14.33Q258.38-17.93 256.69-19.84 255-21.75 251.75-21.75L251.75-21.75Q248.53-21.75 246.83-19.84 245.13-17.93 245.13-14.33L245.13-14.33 245.13-10.15Q245.13-6.53 246.83-4.6 248.53-2.68 251.75-2.68ZM267.75-24.4L271.78-24.4 271.78-9.22Q271.78-7.3 272.31-5.86 272.85-4.42 274.08-3.64 275.3-2.85 277.38-2.85L277.38-2.85Q279.33-2.85 280.73-3.56 282.13-4.28 283.01-5.53 283.9-6.78 284.23-8.35L284.23-8.35 284.95-5.48 284.08-5.48Q283.7-3.83 282.7-2.46 281.7-1.1 280.01-0.29 278.33 0.53 275.85 0.53L275.85 0.53Q272.98 0.53 271.19-0.56 269.4-1.65 268.58-3.74 267.75-5.83 267.75-8.78L267.75-8.78 267.75-24.4ZM284.05-24.4L288.1-24.4 288.1 0 284.05 0 284.23-5.85 284.05-6.1 284.05-24.4ZM298.55-14.93L298.55-14.93 297.62-18.05 298.62-18.1Q299.42-21.2 301.37-22.99 303.32-24.78 306.55-24.78L306.55-24.78Q307.35-24.78 307.99-24.65 308.62-24.53 309.12-24.35L309.12-24.35 309.37-20.43Q308.75-20.63 307.99-20.75 307.22-20.88 306.3-20.88L306.3-20.88Q303.55-20.88 301.51-19.35 299.47-17.82 298.55-14.93ZM298.75 0L294.7 0 294.7-24.4 298.65-24.4 298.45-17.2 298.75-16.9 298.75 0ZM333.24 0.58L333.24 0.58Q330.94 0.58 329.03 0.2 327.12-0.18 325.62-0.73 324.12-1.28 323.12-1.83L323.12-1.83 322.69-5.95Q324.62-4.8 327.23-3.94 329.84-3.08 332.92-3.08L332.92-3.08Q336.62-3.08 338.39-4.39 340.17-5.7 340.17-8.33L340.17-8.33 340.17-8.72Q340.17-10.45 339.47-11.55 338.77-12.65 337.11-13.4 335.44-14.15 332.59-14.8L332.59-14.8Q328.99-15.65 326.83-16.81 324.67-17.98 323.7-19.73 322.74-21.48 322.74-24.08L322.74-24.08 322.74-24.3Q322.74-28.23 325.32-30.36 327.89-32.5 333.12-32.5L333.12-32.5Q336.54-32.5 338.95-31.8 341.37-31.1 342.89-30.25L342.89-30.25 343.27-26.45Q341.49-27.5 339.13-28.24 336.77-28.98 333.72-28.98L333.72-28.98Q331.29-28.98 329.79-28.4 328.29-27.83 327.62-26.75 326.94-25.68 326.94-24.15L326.94-24.15 326.94-24.05Q326.94-22.5 327.61-21.4 328.27-20.3 329.93-19.5 331.59-18.7 334.67-17.95L334.67-17.95Q338.19-17.13 340.32-16.05 342.44-14.98 343.4-13.25 344.37-11.53 344.37-8.75L344.37-8.75 344.37-8.22Q344.37-3.9 341.58-1.66 338.79 0.58 333.24 0.58ZM368.42 0L364.39 0 364.56-5.93 364.42-6.55 364.42-14.33 364.44-15.75Q364.44-18.73 362.93-20.15 361.42-21.58 358.14-21.58L358.14-21.58Q355.51-21.58 353.33-20.83 351.14-20.08 349.44-19.07L349.44-19.07 349.81-22.53Q350.76-23.1 352.08-23.66 353.39-24.23 355.08-24.6 356.76-24.98 358.79-24.98L358.79-24.98Q361.42-24.98 363.25-24.34 365.09-23.7 366.23-22.5 367.37-21.3 367.89-19.6 368.42-17.9 368.42-15.8L368.42-15.8 368.42 0ZM355.99 0.53L355.99 0.53Q352.37 0.53 350.43-1.24 348.49-3 348.49-6.28L348.49-6.28 348.49-7Q348.49-10.38 350.58-12.04 352.67-13.7 357.22-14.35L357.22-14.35 364.94-15.45 365.17-12.5 357.72-11.43Q354.92-11.03 353.72-10.06 352.51-9.1 352.51-7.23L352.51-7.23 352.51-6.83Q352.51-4.9 353.7-3.88 354.89-2.85 357.26-2.85L357.26-2.85Q359.37-2.85 360.87-3.58 362.37-4.3 363.29-5.53 364.22-6.75 364.54-8.25L364.54-8.25 365.17-5.5 364.39-5.5Q364.04-3.9 363.08-2.53 362.12-1.15 360.39-0.31 358.67 0.53 355.99 0.53ZM378.76 0L374.74 0 374.74-33.13 378.76-33.13 378.76 0ZM395.74 0.55L395.74 0.55Q390.16 0.55 387.33-2.18 384.51-4.9 384.51-9.98L384.51-9.98 384.51-14.33Q384.51-19.48 387.13-22.26 389.76-25.05 394.81-25.05L394.81-25.05Q398.21-25.05 400.49-23.79 402.76-22.53 403.91-20.2 405.06-17.88 405.06-14.65L405.06-14.65 405.06-13.75Q405.06-12.95 405-12.15 404.94-11.35 404.83-10.58L404.83-10.58 401.11-10.58Q401.16-11.78 401.17-12.85 401.19-13.93 401.19-14.83L401.19-14.83Q401.19-17.05 400.47-18.59 399.76-20.13 398.35-20.94 396.94-21.75 394.81-21.75L394.81-21.75Q391.66-21.75 390.08-19.93 388.51-18.1 388.51-14.7L388.51-14.7 388.51-12.38 388.54-11.88 388.54-9.55Q388.54-8.03 388.99-6.8 389.44-5.58 390.4-4.69 391.36-3.8 392.85-3.34 394.33-2.88 396.38-2.88L396.38-2.88Q398.76-2.88 400.81-3.5 402.86-4.13 404.66-5.2L404.66-5.2 404.29-1.7Q402.66-0.68 400.51-0.06 398.36 0.55 395.74 0.55ZM403.99-10.58L386.63-10.58 386.63-13.63 403.99-13.63 403.99-10.58ZM418.08 0.55L418.08 0.55Q415.13 0.55 412.93-0.09 410.73-0.73 409.28-1.48L409.28-1.48 408.91-5.23Q410.73-4.28 412.92-3.58 415.11-2.88 417.88-2.88L417.88-2.88Q420.71-2.88 422.13-3.78 423.56-4.67 423.56-6.45L423.56-6.45 423.56-6.73Q423.56-7.88 423.02-8.63 422.48-9.38 421.08-9.95 419.68-10.53 417.11-11.1L417.11-11.1Q414.03-11.78 412.26-12.69 410.48-13.6 409.72-14.95 408.96-16.3 408.96-18.25L408.96-18.25 408.96-18.48Q408.96-21.68 411.18-23.33 413.41-24.98 417.88-24.98L417.88-24.98Q420.76-24.98 422.87-24.33 424.98-23.68 426.33-22.88L426.33-22.88 426.71-19.45Q425.08-20.4 422.98-21.03 420.88-21.65 418.26-21.65L418.26-21.65Q416.36-21.65 415.18-21.26 414.01-20.88 413.48-20.16 412.96-19.45 412.96-18.45L412.96-18.45 412.96-18.25Q412.96-17.15 413.48-16.39 414.01-15.63 415.37-15.06 416.73-14.5 419.16-13.98L419.16-13.98Q422.28-13.35 424.12-12.48 425.96-11.6 426.76-10.26 427.56-8.93 427.56-6.83L427.56-6.83 427.56-6.4Q427.56-2.95 425.16-1.2 422.76 0.55 418.08 0.55ZM432.03-6.78L435.93-6.78Q436.01-6.3 436.09-5.54 436.18-4.78 436.18-3.9L436.18-3.9Q436.18-0.9 435.34 1.65 434.51 4.2 432.48 6.58L432.48 6.58 429.68 5.68Q430.98 3.6 431.61 1.33 432.23-0.95 432.23-3.73L432.23-3.73Q432.23-4.55 432.18-5.29 432.13-6.03 432.03-6.78L432.03-6.78ZM461.8 0.58L461.8 0.58Q459.5 0.58 457.59 0.2 455.68-0.18 454.18-0.73 452.68-1.28 451.68-1.83L451.68-1.83 451.25-5.95Q453.18-4.8 455.79-3.94 458.4-3.08 461.48-3.08L461.48-3.08Q465.18-3.08 466.95-4.39 468.73-5.7 468.73-8.33L468.73-8.33 468.73-8.72Q468.73-10.45 468.02-11.55 467.32-12.65 465.66-13.4 464-14.15 461.15-14.8L461.15-14.8Q457.55-15.65 455.39-16.81 453.23-17.98 452.26-19.73 451.3-21.48 451.3-24.08L451.3-24.08 451.3-24.3Q451.3-28.23 453.88-30.36 456.45-32.5 461.68-32.5L461.68-32.5Q465.1-32.5 467.51-31.8 469.93-31.1 471.45-30.25L471.45-30.25 471.82-26.45Q470.05-27.5 467.69-28.24 465.32-28.98 462.27-28.98L462.27-28.98Q459.85-28.98 458.35-28.4 456.85-27.83 456.18-26.75 455.5-25.68 455.5-24.15L455.5-24.15 455.5-24.05Q455.5-22.5 456.16-21.4 456.82-20.3 458.49-19.5 460.15-18.7 463.23-17.95L463.23-17.95Q466.75-17.13 468.88-16.05 471-14.98 471.96-13.25 472.93-11.53 472.93-8.75L472.93-8.75 472.93-8.22Q472.93-3.9 470.14-1.66 467.35 0.58 461.8 0.58ZM482.6 0L478.55 0 478.55-24.4 482.6-24.4 482.6 0ZM480.57-28.4L480.57-28.4Q479.32-28.4 478.71-29.06 478.1-29.73 478.1-30.88L478.1-30.88 478.1-31Q478.1-32.18 478.71-32.83 479.32-33.48 480.57-33.48L480.57-33.48Q481.82-33.48 482.45-32.83 483.07-32.18 483.07-31L483.07-31 483.07-30.88Q483.07-29.7 482.45-29.05 481.82-28.4 480.57-28.4ZM523.82 0L519.77 0 519.77-15.28Q519.77-17.2 519.28-18.61 518.79-20.03 517.68-20.8 516.57-21.58 514.7-21.58L514.7-21.58Q512.92-21.58 511.62-20.85 510.32-20.13 509.52-18.91 508.72-17.7 508.39-16.15L508.39-16.15 507.77-19.03 508.27-19.03Q508.67-20.6 509.62-21.95 510.57-23.3 512.2-24.13 513.82-24.95 516.22-24.95L516.22-24.95Q518.95-24.95 520.61-23.88 522.27-22.8 523.04-20.74 523.82-18.68 523.82-15.73L523.82-15.73 523.82 0ZM493.35 0L489.3 0 489.3-24.4 493.35-24.4 493.17-18.55 493.35-18.3 493.35 0ZM508.57 0L504.55 0 504.55-15.28Q504.55-17.2 504.06-18.61 503.57-20.03 502.47-20.8 501.37-21.58 499.5-21.58L499.5-21.58Q497.69-21.58 496.39-20.85 495.1-20.13 494.3-18.89 493.5-17.65 493.17-16.07L493.17-16.07 492.42-18.95 493.32-18.95Q493.69-20.6 494.62-21.96 495.55-23.33 497.13-24.14 498.72-24.95 501-24.95L501-24.95Q504.37-24.95 506.13-23.2 507.89-21.45 508.35-18.1L508.35-18.1Q508.47-17.6 508.52-17.01 508.57-16.43 508.57-15.85L508.57-15.85 508.57 0ZM542.12 0.53L542.12 0.53Q539.87 0.53 538.22-0.23 536.57-0.98 535.54-2.38 534.52-3.78 534.17-5.63L534.17-5.63 532.84-5.63 534.02-9.43Q534.12-7.23 535-5.76 535.89-4.3 537.42-3.58 538.94-2.85 540.87-2.85L540.87-2.85Q543.94-2.85 545.58-4.65 547.22-6.45 547.22-9.93L547.22-9.93 547.22-14.6Q547.22-18.05 545.59-19.85 543.97-21.65 540.87-21.65L540.87-21.65Q539.02-21.65 537.59-20.93 536.17-20.2 535.23-18.95 534.29-17.7 533.94-16.1L533.94-16.1 532.94-18.93 534.12-18.93Q534.52-20.6 535.48-21.96 536.44-23.33 538.13-24.14 539.82-24.95 542.29-24.95L542.29-24.95Q546.69-24.95 548.99-22.21 551.29-19.48 551.29-14.28L551.29-14.28 551.29-10.23Q551.29-4.98 548.98-2.23 546.67 0.53 542.12 0.53ZM534.12 8.6L530.09 8.6 530.09-24.4 534.14-24.4 533.97-18.53 534.02-17.28 534.02-7 533.99-6.18 534.12 0.68 534.12 8.6ZM561.09 0L557.06 0 557.06-33.13 561.09-33.13 561.09 0ZM571.94 0L567.89 0 567.89-24.4 571.94-24.4 571.94 0ZM569.91-28.4L569.91-28.4Q568.66-28.4 568.05-29.06 567.44-29.73 567.44-30.88L567.44-30.88 567.44-31Q567.44-32.18 568.05-32.83 568.66-33.48 569.91-33.48L569.91-33.48Q571.16-33.48 571.79-32.83 572.41-32.18 572.41-31L572.41-31 572.41-30.88Q572.41-29.7 571.79-29.05 571.16-28.4 569.91-28.4ZM586.83-33.8L586.83-33.8Q588.71-33.8 590.2-33.46 591.68-33.13 592.93-32.63L592.93-32.63 593.33-29.45Q592.11-29.9 590.87-30.16 589.63-30.43 588.08-30.43L588.08-30.43Q586.21-30.43 585.07-29.94 583.93-29.45 583.45-28.56 582.96-27.68 582.96-26.43L582.96-26.43 582.96-26.3Q582.96-25.43 583.18-24.64 583.41-23.85 583.68-23.2L583.68-23.2 580.96-23.1 580.96-23.6Q580.18-24.2 579.6-25.28 579.01-26.35 579.01-27.78L579.01-27.78 579.01-27.9Q579.01-30.58 580.91-32.19 582.81-33.8 586.83-33.8ZM583.86 0L579.83 0 579.83-22.23 583.86-22.23 583.86 0ZM592.86-20.25L575.81-20.25 575.81-23.48 581.38-23.45 583.03-23.48 593.23-23.48 592.86-20.25ZM606.06-3.78L608.38-3.78 606.26-2.85 613.56-24.4 617.73-24.4 606.26 8.6 602.16 8.6 606.01-2.55 607.78-1 603.18-1 595.21-24.4 599.41-24.4 606.06-3.78ZM644.83-9.6L641.25-9.6 630.28-31.95 634.65-31.95 640.53-19.73 642.88-14.43 643.2-14.43 645.55-19.73 651.4-31.95 655.8-31.95 644.83-9.6ZM645.08 0L641 0 641-13.48 645.08-13.48 645.08 0ZM669.72 0.63L669.72 0.63Q664.47 0.63 661.76-2.21 659.05-5.05 659.05-10.38L659.05-10.38 659.05-14.1Q659.05-19.4 661.77-22.23 664.5-25.05 669.72-25.05L669.72-25.05Q674.97-25.05 677.69-22.23 680.4-19.4 680.4-14.1L680.4-14.1 680.4-10.38Q680.4-5.05 677.69-2.21 674.97 0.63 669.72 0.63ZM669.72-2.68L669.72-2.68Q672.97-2.68 674.66-4.6 676.35-6.53 676.35-10.15L676.35-10.15 676.35-14.33Q676.35-17.93 674.66-19.84 672.97-21.75 669.72-21.75L669.72-21.75Q666.5-21.75 664.8-19.84 663.1-17.93 663.1-14.33L663.1-14.33 663.1-10.15Q663.1-6.53 664.8-4.6 666.5-2.68 669.72-2.68ZM685.72-24.4L689.75-24.4 689.75-9.22Q689.75-7.3 690.28-5.86 690.82-4.42 692.05-3.64 693.27-2.85 695.35-2.85L695.35-2.85Q697.3-2.85 698.7-3.56 700.1-4.28 700.98-5.53 701.87-6.78 702.2-8.35L702.2-8.35 702.92-5.48 702.05-5.48Q701.67-3.83 700.67-2.46 699.67-1.1 697.98-0.29 696.3 0.53 693.82 0.53L693.82 0.53Q690.95 0.53 689.16-0.56 687.37-1.65 686.55-3.74 685.72-5.83 685.72-8.78L685.72-8.78 685.72-24.4ZM702.02-24.4L706.07-24.4 706.07 0 702.02 0 702.2-5.85 702.02-6.1 702.02-24.4ZM716.52-14.93L716.52-14.93 715.59-18.05 716.59-18.1Q717.39-21.2 719.34-22.99 721.29-24.78 724.52-24.78L724.52-24.78Q725.32-24.78 725.96-24.65 726.59-24.53 727.09-24.35L727.09-24.35 727.34-20.43Q726.72-20.63 725.96-20.75 725.19-20.88 724.27-20.88L724.27-20.88Q721.52-20.88 719.48-19.35 717.44-17.82 716.52-14.93ZM716.72 0L712.67 0 712.67-24.4 716.62-24.4 716.42-17.2 716.72-16.9 716.72 0ZM751.21 0.58L751.21 0.58Q748.91 0.58 747 0.2 745.09-0.18 743.59-0.73 742.09-1.28 741.09-1.83L741.09-1.83 740.66-5.95Q742.59-4.8 745.2-3.94 747.81-3.08 750.89-3.08L750.89-3.08Q754.59-3.08 756.36-4.39 758.14-5.7 758.14-8.33L758.14-8.33 758.14-8.72Q758.14-10.45 757.44-11.55 756.74-12.65 755.08-13.4 753.41-14.15 750.56-14.8L750.56-14.8Q746.96-15.65 744.8-16.81 742.64-17.98 741.68-19.73 740.71-21.48 740.71-24.08L740.71-24.08 740.71-24.3Q740.71-28.23 743.29-30.36 745.86-32.5 751.09-32.5L751.09-32.5Q754.51-32.5 756.93-31.8 759.34-31.1 760.86-30.25L760.86-30.25 761.24-26.45Q759.46-27.5 757.1-28.24 754.74-28.98 751.69-28.98L751.69-28.98Q749.26-28.98 747.76-28.4 746.26-27.83 745.59-26.75 744.91-25.68 744.91-24.15L744.91-24.15 744.91-24.05Q744.91-22.5 745.58-21.4 746.24-20.3 747.9-19.5 749.56-18.7 752.64-17.95L752.64-17.95Q756.16-17.13 758.29-16.05 760.41-14.98 761.38-13.25 762.34-11.53 762.34-8.75L762.34-8.75 762.34-8.22Q762.34-3.9 759.55-1.66 756.76 0.58 751.21 0.58ZM767.59-24.4L771.61-24.4 771.61-9.22Q771.61-7.3 772.15-5.86 772.69-4.42 773.91-3.64 775.14-2.85 777.21-2.85L777.21-2.85Q779.16-2.85 780.56-3.56 781.96-4.28 782.85-5.53 783.74-6.78 784.06-8.35L784.06-8.35 784.79-5.48 783.91-5.48Q783.54-3.83 782.54-2.46 781.54-1.1 779.85-0.29 778.16 0.53 775.69 0.53L775.69 0.53Q772.81 0.53 771.02-0.56 769.24-1.65 768.41-3.74 767.59-5.83 767.59-8.78L767.59-8.78 767.59-24.4ZM783.89-24.4L787.94-24.4 787.94 0 783.89 0 784.06-5.85 783.89-6.1 783.89-24.4ZM803.93 0.55L803.93 0.55Q798.68 0.55 796.12-2.29 793.56-5.13 793.56-10.33L793.56-10.33 793.56-14.13Q793.56-19.35 796.13-22.16 798.71-24.98 803.93-24.98L803.93-24.98Q805.48-24.98 806.76-24.69 808.03-24.4 809.05-23.94 810.06-23.48 810.76-22.98L810.76-22.98 811.11-19.45Q809.93-20.35 808.32-20.98 806.71-21.6 804.53-21.6L804.53-21.6Q801.03-21.6 799.32-19.66 797.61-17.73 797.61-14.03L797.61-14.03 797.61-10.43Q797.61-6.8 799.32-4.85 801.03-2.9 804.53-2.9L804.53-2.9Q806.78-2.9 808.42-3.53 810.06-4.15 811.33-5.05L811.33-5.05 810.96-1.48Q809.86-0.73 808.08-0.09 806.31 0.55 803.93 0.55ZM825.63 0.55L825.63 0.55Q820.38 0.55 817.82-2.29 815.26-5.13 815.26-10.33L815.26-10.33 815.26-14.13Q815.26-19.35 817.83-22.16 820.41-24.98 825.63-24.98L825.63-24.98Q827.18-24.98 828.46-24.69 829.73-24.4 830.74-23.94 831.76-23.48 832.46-22.98L832.46-22.98 832.81-19.45Q831.63-20.35 830.02-20.98 828.41-21.6 826.23-21.6L826.23-21.6Q822.73-21.6 821.02-19.66 819.31-17.73 819.31-14.03L819.31-14.03 819.31-10.43Q819.31-6.8 821.02-4.85 822.73-2.9 826.23-2.9L826.23-2.9Q828.48-2.9 830.12-3.53 831.76-4.15 833.03-5.05L833.03-5.05 832.66-1.48Q831.56-0.73 829.78-0.09 828.01 0.55 825.63 0.55ZM848.18 0.55L848.18 0.55Q842.6 0.55 839.78-2.18 836.95-4.9 836.95-9.98L836.95-9.98 836.95-14.33Q836.95-19.48 839.58-22.26 842.2-25.05 847.25-25.05L847.25-25.05Q850.65-25.05 852.93-23.79 855.2-22.53 856.35-20.2 857.5-17.88 857.5-14.65L857.5-14.65 857.5-13.75Q857.5-12.95 857.44-12.15 857.38-11.35 857.28-10.58L857.28-10.58 853.55-10.58Q853.6-11.78 853.62-12.85 853.63-13.93 853.63-14.83L853.63-14.83Q853.63-17.05 852.92-18.59 852.2-20.13 850.79-20.94 849.38-21.75 847.25-21.75L847.25-21.75Q844.1-21.75 842.53-19.93 840.95-18.1 840.95-14.7L840.95-14.7 840.95-12.38 840.98-11.88 840.98-9.55Q840.98-8.03 841.43-6.8 841.88-5.58 842.84-4.69 843.8-3.8 845.29-3.34 846.78-2.88 848.83-2.88L848.83-2.88Q851.2-2.88 853.25-3.5 855.3-4.13 857.1-5.2L857.1-5.2 856.73-1.7Q855.1-0.68 852.95-0.06 850.8 0.55 848.18 0.55ZM856.43-10.58L839.08-10.58 839.08-13.63 856.43-13.63 856.43-10.58ZM870.53 0.55L870.53 0.55Q867.58 0.55 865.38-0.09 863.18-0.73 861.73-1.48L861.73-1.48 861.35-5.23Q863.18-4.28 865.36-3.58 867.55-2.88 870.33-2.88L870.33-2.88Q873.15-2.88 874.58-3.78 876-4.67 876-6.45L876-6.45 876-6.73Q876-7.88 875.46-8.63 874.93-9.38 873.53-9.95 872.13-10.53 869.55-11.1L869.55-11.1Q866.48-11.78 864.7-12.69 862.93-13.6 862.16-14.95 861.4-16.3 861.4-18.25L861.4-18.25 861.4-18.48Q861.4-21.68 863.63-23.33 865.85-24.98 870.33-24.98L870.33-24.98Q873.2-24.98 875.31-24.33 877.43-23.68 878.78-22.88L878.78-22.88 879.15-19.45Q877.53-20.4 875.43-21.03 873.33-21.65 870.7-21.65L870.7-21.65Q868.8-21.65 867.63-21.26 866.45-20.88 865.93-20.16 865.4-19.45 865.4-18.45L865.4-18.45 865.4-18.25Q865.4-17.15 865.93-16.39 866.45-15.63 867.81-15.06 869.18-14.5 871.6-13.98L871.6-13.98Q874.73-13.35 876.56-12.48 878.4-11.6 879.2-10.26 880-8.93 880-6.83L880-6.83 880-6.4Q880-2.95 877.6-1.2 875.2 0.55 870.53 0.55ZM892.57 0.55L892.57 0.55Q889.62 0.55 887.42-0.09 885.22-0.73 883.77-1.48L883.77-1.48 883.4-5.23Q885.22-4.28 887.41-3.58 889.6-2.88 892.37-2.88L892.37-2.88Q895.2-2.88 896.62-3.78 898.05-4.67 898.05-6.45L898.05-6.45 898.05-6.73Q898.05-7.88 897.51-8.63 896.97-9.38 895.57-9.95 894.17-10.53 891.6-11.1L891.6-11.1Q888.52-11.78 886.75-12.69 884.97-13.6 884.21-14.95 883.45-16.3 883.45-18.25L883.45-18.25 883.45-18.48Q883.45-21.68 885.67-23.33 887.9-24.98 892.37-24.98L892.37-24.98Q895.25-24.98 897.36-24.33 899.47-23.68 900.82-22.88L900.82-22.88 901.2-19.45Q899.57-20.4 897.47-21.03 895.37-21.65 892.75-21.65L892.75-21.65Q890.85-21.65 889.67-21.26 888.5-20.88 887.97-20.16 887.45-19.45 887.45-18.45L887.45-18.45 887.45-18.25Q887.45-17.15 887.97-16.39 888.5-15.63 889.86-15.06 891.22-14.5 893.65-13.98L893.65-13.98Q896.77-13.35 898.61-12.48 900.45-11.6 901.25-10.26 902.05-8.93 902.05-6.83L902.05-6.83 902.05-6.4Q902.05-2.95 899.65-1.2 897.25 0.55 892.57 0.55Z" opacity="1" transform="matrix(1,0,0,1,0,0)" fill="#ffffff" class="slogan-text-1" data-fill-palette-color="quaternary" id="text-1"></path></svg></g></svg></g></svg></g></svg></g></svg></g><defs></defs></svg><rect width="395.52" height="133.96171172178362" fill="none" stroke="none" visibility="hidden"></rect></g></svg></g></svg>